<svg class="diagram-root" style="background: #f5f6f6" xmlns="http://www.w3.org/2000/svg" xmlns:xlink="http://www.w3.org/1999/xlink"><style>.diagram-root { font-family: "Helvetica Neue", sans-serif; font-size: 12px; } .t { overflow: visible; } .t-bg { y: 40; fill: #fff;   } .th { fill: #005aa0;   } .tht { fill: #fff; font-size: 14px;  } .tf { fill: #323c46; overflow: visible; } .tf.pk { fill: #005aa0; font-weight: bold; } .tf.fk { font-weight: bold; } .ty { fill: #adb1b5; font-weight: normal; text-anchor: end; } .r { fill: transparent; stroke: #c3c3c3; stroke-width: 1; } .l { stroke: 1; } .i { fill: #c2c7ce; stroke: #c2c7ce; } .i.ix { fill: #afb3b6; stroke: #000; } .fa { fill: transparent; overflow: visible; } .fa .bg.hover { fill: #f7f7f7; } .c { cy: 12; r: 4; stroke: #d2d2dc; fill: #d2d2dc; } .hr { fill: transparent; stroke: #323c46; stroke-opacity: 0.035; stroke-width: 13; } .dc { stroke: #fa5a3c; fill: #fa5a3c; } .x { stroke: white; stroke-width: 1; } .hl .th { fill: #1b9bff; } .hl .tht {  } .fhl .bg { fill: #e7f4ff; } .fhls .bg {  } .r.hl { stroke: #1b9bff; } .dim { opacity: 0.25; }</style><g class="drawing-wrapper" transform="translate(237.00000000000014, 203.94272727272724) scale(1,1)"><g class="rs"><path d="M 153.64 89.27 m -1, 0 a 1,1 0 1,0 2,0 a 1,1 0 1,0 -2,0 M 153.64 89.27 m -0.5, 0 a 0.5,0.5 0 1,0 1,0 a 0.5,0.5 0 1,0 -1,0  M153.64 89.27 L153.64 89.27 141.64 89.27 M 153.64 95.27 m -1, 0 a 1,1 0 1,0 2,0 a 1,1 0 1,0 -2,0 M 153.64 95.27 m -0.5, 0 a 0.5,0.5 0 1,0 1,0 a 0.5,0.5 0 1,0 -1,0  M153.64 95.27 L153.64 95.27 146.64 89.27 153.64 83.27 M 153.64 83.27 m -1, 0 a 1,1 0 1,0 2,0 a 1,1 0 1,0 -2,0 M 153.64 83.27 m -0.5, 0 a 0.5,0.5 0 1,0 1,0 a 0.5,0.5 0 1,0 -1,0  M141.64 89.27 Q 113.63 89.27, 85.62 -6.43 T 29.6 -102.13999999999999 M 17.6 -102.13999999999999 m -1, 0 a 1,1 0 1,0 2,0 a 1,1 0 1,0 -2,0 M 17.6 -102.13999999999999 m -0.5, 0 a 0.5,0.5 0 1,0 1,0 a 0.5,0.5 0 1,0 -1,0  M17.6 -102.13999999999999 L17.6 -102.13999999999999 29.6 -102.13999999999999 M23.6 -96.13999999999999 L23.6 -96.13999999999999 23.6 -108.13999999999999" id="h3103455242" class="r"></path><path d="M 492.73 197.45 m -1, 0 a 1,1 0 1,0 2,0 a 1,1 0 1,0 -2,0 M 492.73 197.45 m -0.5, 0 a 0.5,0.5 0 1,0 1,0 a 0.5,0.5 0 1,0 -1,0  M492.73 197.45 L492.73 197.45 480.73 197.45 M 492.73 203.45 m -1, 0 a 1,1 0 1,0 2,0 a 1,1 0 1,0 -2,0 M 492.73 203.45 m -0.5, 0 a 0.5,0.5 0 1,0 1,0 a 0.5,0.5 0 1,0 -1,0  M492.73 203.45 L492.73 203.45 485.73 197.45 492.73 191.45 M 492.73 191.45 m -1, 0 a 1,1 0 1,0 2,0 a 1,1 0 1,0 -2,0 M 492.73 191.45 m -0.5, 0 a 0.5,0.5 0 1,0 1,0 a 0.5,0.5 0 1,0 -1,0  M480.73 197.45 Q 449.42 197.45, 418.11 130.86 T 355.48 64.27 M 343.48 64.27 m -1, 0 a 1,1 0 1,0 2,0 a 1,1 0 1,0 -2,0 M 343.48 64.27 m -0.5, 0 a 0.5,0.5 0 1,0 1,0 a 0.5,0.5 0 1,0 -1,0  M343.48 64.27 L343.48 64.27 355.48 64.27 M 343.48 70.27 m -1, 0 a 1,1 0 1,0 2,0 a 1,1 0 1,0 -2,0 M 343.48 70.27 m -0.5, 0 a 0.5,0.5 0 1,0 1,0 a 0.5,0.5 0 1,0 -1,0  M343.48 70.27 L343.48 70.27 350.48 64.27 343.48 58.269999999999996 M 343.48 58.269999999999996 m -1, 0 a 1,1 0 1,0 2,0 a 1,1 0 1,0 -2,0 M 343.48 58.269999999999996 m -0.5, 0 a 0.5,0.5 0 1,0 1,0 a 0.5,0.5 0 1,0 -1,0 " id="h219041670" class="r"></path><path d="M 492.73 222.45 m -1, 0 a 1,1 0 1,0 2,0 a 1,1 0 1,0 -2,0 M 492.73 222.45 m -0.5, 0 a 0.5,0.5 0 1,0 1,0 a 0.5,0.5 0 1,0 -1,0  M492.73 222.45 L492.73 222.45 480.73 222.45 M 492.73 228.45 m -1, 0 a 1,1 0 1,0 2,0 a 1,1 0 1,0 -2,0 M 492.73 228.45 m -0.5, 0 a 0.5,0.5 0 1,0 1,0 a 0.5,0.5 0 1,0 -1,0  M492.73 228.45 L492.73 228.45 485.73 222.45 492.73 216.45 M 492.73 216.45 m -1, 0 a 1,1 0 1,0 2,0 a 1,1 0 1,0 -2,0 M 492.73 216.45 m -0.5, 0 a 0.5,0.5 0 1,0 1,0 a 0.5,0.5 0 1,0 -1,0  M480.73 222.45 Q 445.99 222.45, 411.24 333.48 T 341.75 444.5 M 329.75 444.5 m -1, 0 a 1,1 0 1,0 2,0 a 1,1 0 1,0 -2,0 M 329.75 444.5 m -0.5, 0 a 0.5,0.5 0 1,0 1,0 a 0.5,0.5 0 1,0 -1,0  M329.75 444.5 L329.75 444.5 341.75 444.5 M 329.75 450.5 m -1, 0 a 1,1 0 1,0 2,0 a 1,1 0 1,0 -2,0 M 329.75 450.5 m -0.5, 0 a 0.5,0.5 0 1,0 1,0 a 0.5,0.5 0 1,0 -1,0  M329.75 450.5 L329.75 450.5 336.75 444.5 329.75 438.5 M 329.75 438.5 m -1, 0 a 1,1 0 1,0 2,0 a 1,1 0 1,0 -2,0 M 329.75 438.5 m -0.5, 0 a 0.5,0.5 0 1,0 1,0 a 0.5,0.5 0 1,0 -1,0 " id="h2784726141" class="r"></path><path d="M -26.49 259.27 m -1, 0 a 1,1 0 1,0 2,0 a 1,1 0 1,0 -2,0 M -26.49 259.27 m -0.5, 0 a 0.5,0.5 0 1,0 1,0 a 0.5,0.5 0 1,0 -1,0  M-26.49 259.27 L-26.49 259.27 -14.489999999999998 259.27 M -26.49 265.27 m -1, 0 a 1,1 0 1,0 2,0 a 1,1 0 1,0 -2,0 M -26.49 265.27 m -0.5, 0 a 0.5,0.5 0 1,0 1,0 a 0.5,0.5 0 1,0 -1,0  M-26.49 265.27 L-26.49 265.27 -19.49 259.27 -26.49 253.26999999999998 M -26.49 253.26999999999998 m -1, 0 a 1,1 0 1,0 2,0 a 1,1 0 1,0 -2,0 M -26.49 253.26999999999998 m -0.5, 0 a 0.5,0.5 0 1,0 1,0 a 0.5,0.5 0 1,0 -1,0  M-14.489999999999998 259.27 Q 21.45 259.27, 57.38 351.89 T 129.24 444.5 M 141.24 444.5 m -1, 0 a 1,1 0 1,0 2,0 a 1,1 0 1,0 -2,0 M 141.24 444.5 m -0.5, 0 a 0.5,0.5 0 1,0 1,0 a 0.5,0.5 0 1,0 -1,0  M141.24 444.5 L141.24 444.5 129.24 444.5 M 141.24 450.5 m -1, 0 a 1,1 0 1,0 2,0 a 1,1 0 1,0 -2,0 M 141.24 450.5 m -0.5, 0 a 0.5,0.5 0 1,0 1,0 a 0.5,0.5 0 1,0 -1,0  M141.24 450.5 L141.24 450.5 134.24 444.5 141.24 438.5 M 141.24 438.5 m -1, 0 a 1,1 0 1,0 2,0 a 1,1 0 1,0 -2,0 M 141.24 438.5 m -0.5, 0 a 0.5,0.5 0 1,0 1,0 a 0.5,0.5 0 1,0 -1,0 " id="h3102077576" class="r"></path><path d="M -26.49 284.27 m -1, 0 a 1,1 0 1,0 2,0 a 1,1 0 1,0 -2,0 M -26.49 284.27 m -0.5, 0 a 0.5,0.5 0 1,0 1,0 a 0.5,0.5 0 1,0 -1,0  M-26.49 284.27 L-26.49 284.27 -14.489999999999998 284.27 M -26.49 290.27 m -1, 0 a 1,1 0 1,0 2,0 a 1,1 0 1,0 -2,0 M -26.49 290.27 m -0.5, 0 a 0.5,0.5 0 1,0 1,0 a 0.5,0.5 0 1,0 -1,0  M-26.49 290.27 L-26.49 290.27 -19.49 284.27 -26.49 278.27 M -26.49 278.27 m -1, 0 a 1,1 0 1,0 2,0 a 1,1 0 1,0 -2,0 M -26.49 278.27 m -0.5, 0 a 0.5,0.5 0 1,0 1,0 a 0.5,0.5 0 1,0 -1,0  M-14.489999999999998 284.27 Q 24.55 284.27, 63.58 174.27 T 141.64 64.27 M 153.64 64.27 m -1, 0 a 1,1 0 1,0 2,0 a 1,1 0 1,0 -2,0 M 153.64 64.27 m -0.5, 0 a 0.5,0.5 0 1,0 1,0 a 0.5,0.5 0 1,0 -1,0  M153.64 64.27 L153.64 64.27 141.64 64.27 M 153.64 70.27 m -1, 0 a 1,1 0 1,0 2,0 a 1,1 0 1,0 -2,0 M 153.64 70.27 m -0.5, 0 a 0.5,0.5 0 1,0 1,0 a 0.5,0.5 0 1,0 -1,0  M153.64 70.27 L153.64 70.27 146.64 64.27 153.64 58.269999999999996 M 153.64 58.269999999999996 m -1, 0 a 1,1 0 1,0 2,0 a 1,1 0 1,0 -2,0 M 153.64 58.269999999999996 m -0.5, 0 a 0.5,0.5 0 1,0 1,0 a 0.5,0.5 0 1,0 -1,0 " id="h175481269" class="r"></path><path d="M 481.63 -116.94 m -1, 0 a 1,1 0 1,0 2,0 a 1,1 0 1,0 -2,0 M 481.63 -116.94 m -0.5, 0 a 0.5,0.5 0 1,0 1,0 a 0.5,0.5 0 1,0 -1,0  M481.63 -116.94 L481.63 -116.94 469.63 -116.94 M475.63 -110.94 L475.63 -110.94 475.63 -122.94 M469.63 -116.94 Q 441.1 -116.94, 412.56 -26.33 T 355.48 64.27 M 343.48 64.27 m -1, 0 a 1,1 0 1,0 2,0 a 1,1 0 1,0 -2,0 M 343.48 64.27 m -0.5, 0 a 0.5,0.5 0 1,0 1,0 a 0.5,0.5 0 1,0 -1,0  M343.48 64.27 L343.48 64.27 355.48 64.27 M349.48 70.27 L349.48 70.27 349.48 58.269999999999996" id="h221257298" class="r"></path></g><g class="hrs"></g><g class="ts"><svg width="188.51" height="100" x="141.24" y="387.5" id="h3708248841" class="t"><rect height="40" width="188.51" class="th"></rect><text x="13" y="25" class="tht">Departments</text><rect height="60" width="188.51" class="t-bg" y="40"></rect><text x="13" y="61" class="tf pk">dept_no<tspan x="175.51" class="ty">VARCHAR(15)</tspan></text><path d="M7,14A2,2 0 0,1 5,12A2,2 0 0,1 7,10A2,2 0 0,1 9,12A2,2 0 0,1 7,14M12.65,10C11.83,7.67 9.61,6 7, 6A6, 6 0 0, 0 1, 12A6, 6 0 0, 0 7, 18C9.61, 18 11.83, 16.33 12.65, 14H17V18H21V14H23V10H12.65Z" class="i pk" transform="translate(76.37914062499999, 48) scale(0.65)"></path><text x="13" y="86" class="tf">dept_name<tspan x="175.51" class="ty">VARCHAR(30)</tspan></text></svg><svg width="189.84" height="225" x="153.64" y="7.27" id="h3299212598" class="t"><rect height="40" width="189.84" class="th"></rect><text x="13" y="25" class="tht">Employees</text><rect height="185" width="189.84" class="t-bg" y="40"></rect><text x="13" y="61" class="tf pk">emp_no<tspan x="176.84" class="ty">INTEGER</tspan></text><path d="M7,14A2,2 0 0,1 5,12A2,2 0 0,1 7,10A2,2 0 0,1 9,12A2,2 0 0,1 7,14M12.65,10C11.83,7.67 9.61,6 7, 6A6, 6 0 0, 0 1, 12A6, 6 0 0, 0 7, 18C9.61, 18 11.83, 16.33 12.65, 14H17V18H21V14H23V10H12.65Z" class="i pk" transform="translate(103.502109375, 48) scale(0.65)"></path><text x="13" y="86" class="tf fk">emp_title_id<tspan x="176.84" class="ty">VARCHAR(40)</tspan></text><text x="13" y="111" class="tf">birth_date<tspan x="176.84" class="ty">DATE</tspan></text><text x="13" y="136" class="tf">first_name<tspan x="176.84" class="ty">VARCHAR(30)</tspan></text><text x="13" y="161" class="tf">last_name<tspan x="176.84" class="ty">VARCHAR(30)</tspan></text><text x="13" y="186" class="tf">sex<tspan x="176.84" class="ty">VARCHAR</tspan></text><text x="13" y="211" class="tf">hire_date<tspan x="176.84" class="ty">DATE</tspan></text></svg><svg width="188.51" height="125" x="492.73" y="115.45" id="h518886252" class="t"><rect height="40" width="188.51" class="th"></rect><text x="13" y="25" class="tht">Department_Employee</text><rect height="85" width="188.51" class="t-bg" y="40"></rect><text x="13" y="61" class="tf pk">id<tspan x="175.51" class="ty">SERIAL</tspan></text><path d="M7,14A2,2 0 0,1 5,12A2,2 0 0,1 7,10A2,2 0 0,1 9,12A2,2 0 0,1 7,14M12.65,10C11.83,7.67 9.61,6 7, 6A6, 6 0 0, 0 1, 12A6, 6 0 0, 0 7, 18C9.61, 18 11.83, 16.33 12.65, 14H17V18H21V14H23V10H12.65Z" class="i pk" transform="translate(112.82445312499999, 48) scale(0.65)"></path><text x="13" y="86" class="tf pk">emp_no<tspan x="175.51" class="ty">INTEGER</tspan></text><path d="M7,14A2,2 0 0,1 5,12A2,2 0 0,1 7,10A2,2 0 0,1 9,12A2,2 0 0,1 7,14M12.65,10C11.83,7.67 9.61,6 7, 6A6, 6 0 0, 0 1, 12A6, 6 0 0, 0 7, 18C9.61, 18 11.83, 16.33 12.65, 14H17V18H21V14H23V10H12.65Z" class="i pk" transform="translate(102.17210937499999, 73) scale(0.65)"></path><text x="13" y="111" class="tf pk">dept_no<tspan x="175.51" class="ty">VARCHAR(10)</tspan></text><path d="M7,14A2,2 0 0,1 5,12A2,2 0 0,1 7,10A2,2 0 0,1 9,12A2,2 0 0,1 7,14M12.65,10C11.83,7.67 9.61,6 7, 6A6, 6 0 0, 0 1, 12A6, 6 0 0, 0 7, 18C9.61, 18 11.83, 16.33 12.65, 14H17V18H21V14H23V10H12.65Z" class="i pk" transform="translate(76.37914062499999, 98) scale(0.65)"></path></svg><svg width="188.51" height="125" x="-215" y="177.27" id="h2951077092" class="t"><rect height="40" width="188.51" class="th"></rect><text x="13" y="25" class="tht">Department_Manager</text><rect height="85" width="188.51" class="t-bg" y="40"></rect><text x="13" y="61" class="tf pk">id<tspan x="175.51" class="ty">SERIAL</tspan></text><path d="M7,14A2,2 0 0,1 5,12A2,2 0 0,1 7,10A2,2 0 0,1 9,12A2,2 0 0,1 7,14M12.65,10C11.83,7.67 9.61,6 7, 6A6, 6 0 0, 0 1, 12A6, 6 0 0, 0 7, 18C9.61, 18 11.83, 16.33 12.65, 14H17V18H21V14H23V10H12.65Z" class="i pk" transform="translate(112.82445312499999, 48) scale(0.65)"></path><text x="13" y="86" class="tf pk">dept_no<tspan x="175.51" class="ty">VARCHAR(10)</tspan></text><path d="M7,14A2,2 0 0,1 5,12A2,2 0 0,1 7,10A2,2 0 0,1 9,12A2,2 0 0,1 7,14M12.65,10C11.83,7.67 9.61,6 7, 6A6, 6 0 0, 0 1, 12A6, 6 0 0, 0 7, 18C9.61, 18 11.83, 16.33 12.65, 14H17V18H21V14H23V10H12.65Z" class="i pk" transform="translate(76.37914062499999, 73) scale(0.65)"></path><text x="13" y="111" class="tf fk">emp_no<tspan x="175.51" class="ty">INTEGER</tspan></text></svg><svg width="162.7" height="100" x="481.63" y="-173.94" id="h3858243705" class="t"><rect height="40" width="162.7" class="th"></rect><text x="13" y="25" class="tht">Salaries</text><rect height="60" width="162.7" class="t-bg" y="40"></rect><text x="13" y="61" class="tf pk">emp_no<tspan x="149.7" class="ty">INTEGER</tspan></text><path d="M7,14A2,2 0 0,1 5,12A2,2 0 0,1 7,10A2,2 0 0,1 9,12A2,2 0 0,1 7,14M12.65,10C11.83,7.67 9.61,6 7, 6A6, 6 0 0, 0 1, 12A6, 6 0 0, 0 7, 18C9.61, 18 11.83, 16.33 12.65, 14H17V18H21V14H23V10H12.65Z" class="i pk" transform="translate(76.36210937499999, 48) scale(0.65)"></path><text x="13" y="86" class="tf">salary<tspan x="149.7" class="ty">INTEGER</tspan></text></svg><svg width="209.84" height="100" x="-192.24" y="-159.14" id="h3517680912" class="t"><rect height="40" width="209.84" class="th"></rect><text x="13" y="25" class="tht">Titles</text><rect height="60" width="209.84" class="t-bg" y="40"></rect><text x="13" y="61" class="tf pk">emp_title_id<tspan x="196.84" class="ty">VARCHAR(40)</tspan></text><path d="M7,14A2,2 0 0,1 5,12A2,2 0 0,1 7,10A2,2 0 0,1 9,12A2,2 0 0,1 7,14M12.65,10C11.83,7.67 9.61,6 7, 6A6, 6 0 0, 0 1, 12A6, 6 0 0, 0 7, 18C9.61, 18 11.83, 16.33 12.65, 14H17V18H21V14H23V10H12.65Z" class="i pk" transform="translate(97.709140625, 48) scale(0.65)"></path><text x="13" y="86" class="tf">title<tspan x="196.84" class="ty">VARCHAR(20)</tspan></text></svg></g></g><text class="qdbd-link" x="10" y="20">www.quickdatabasediagrams.com</text></svg>